<?xml version="1.0" encoding="UTF-8" standalone="no"?>
<!-- Created with Inkscape (http://www.inkscape.org/) -->

<svg
   width="2048"
   height="800"
   viewBox="0 0 541.86666 211.66666"
   version="1.1"
   id="svg1"
   xml:space="preserve"
   inkscape:version="1.4.2 (2aeb623e1d, 2025-05-12)"
   sodipodi:docname="gendalf-logog.svg"
   xmlns:inkscape="http://www.inkscape.org/namespaces/inkscape"
   xmlns:sodipodi="http://sodipodi.sourceforge.net/DTD/sodipodi-0.dtd"
   xmlns="http://www.w3.org/2000/svg"
   xmlns:svg="http://www.w3.org/2000/svg"><sodipodi:namedview
     id="namedview1"
     pagecolor="#ffffff"
     bordercolor="#000000"
     borderopacity="0.25"
     inkscape:showpageshadow="2"
     inkscape:pageopacity="0.0"
     inkscape:pagecheckerboard="0"
     inkscape:deskcolor="#d1d1d1"
     inkscape:document-units="mm"
     inkscape:zoom="0.60447289"
     inkscape:cx="966.95817"
     inkscape:cy="417.71931"
     inkscape:window-width="1920"
     inkscape:window-height="1011"
     inkscape:window-x="0"
     inkscape:window-y="32"
     inkscape:window-maximized="1"
     inkscape:current-layer="layer1" /><defs
     id="defs1" /><g
     inkscape:label="Layer 1"
     inkscape:groupmode="layer"
     id="layer1"><rect
       style="display:none;opacity:1;fill:#031a3a;fill-opacity:1;stroke-width:1.31687"
       id="rect3"
       width="556.78473"
       height="226.9505"
       x="-7.4590311"
       y="-7.6419168"
       inkscape:label="bg1" /><g
       id="g4"
       inkscape:label="logo"
       transform="translate(116.90209,-49.466189)"><g
         id="g3"
         inkscape:label="staff &amp; br"><g
           id="g2"
           transform="translate(0,62.441701)"
           style="fill:#135792;fill-opacity:1"
           inkscape:label="brackets"><path
             id="rect2"
             style="opacity:1;fill:#135792;fill-opacity:1;stroke-width:0.264583"
             d="m -11.148674,47.87408 c -13.916779,0 -17.389636,7.524076 -17.389636,13.687537 V 79.27113 c 0,6.699589 -3.503011,10.835016 -8.727632,10.883574 l -0.09302,5.2e-4 v 5.404838 l 0.09302,5.1e-4 c 5.224621,0.04856 8.727632,4.184505 8.727632,10.884098 v 17.70899 c 0,6.16346 3.472857,13.68754 17.389636,13.68754 v -6.54792 c -7.132171,0 -8.536946,-5.56851 -8.536946,-7.13962 v -17.70899 c 0,-11.763712 -9.369587,-13.586775 -9.369587,-13.586775 0,0 9.369587,-2.142416 9.369587,-13.586768 v -17.70951 c 0,-1.571104 1.404775,-7.139616 8.536946,-7.139616 z"
             sodipodi:nodetypes="cssccccssccsscsscc"
             inkscape:label="left br" /><path
             id="path2"
             style="opacity:1;fill:#135792;fill-opacity:1;stroke-width:0.264583"
             d="m 50.590122,47.87408 c 13.916779,0 17.389636,7.524076 17.389636,13.687537 V 79.27113 c 0,6.699589 3.503011,10.835016 8.727632,10.883574 l 0.09302,5.2e-4 v 5.404838 l -0.09302,5.1e-4 c -5.224621,0.04856 -8.727632,4.184505 -8.727632,10.884098 v 17.70899 c 0,6.16346 -3.472857,13.68754 -17.389636,13.68754 v -6.54792 c 7.132171,0 8.536946,-5.56851 8.536946,-7.13962 v -17.70899 c 0,-11.763712 9.369587,-13.586775 9.369587,-13.586775 0,0 -9.369587,-2.142416 -9.369587,-13.586768 v -17.70951 c 0,-1.571104 -1.404775,-7.139616 -8.536946,-7.139616 z"
             sodipodi:nodetypes="cssccccssccsscsscc"
             inkscape:label="right br" /></g><path
           id="rect1"
           style="opacity:1;fill:#00c3ff;fill-opacity:1;stroke-width:0.264583"
           d="m 20.859192,68.461021 c -3.259842,-0.01047 -6.512265,0.625394 -9.533785,2.022617 -12.9943858,5.749426 -17.2610081,18.519801 -15.2187094,31.331432 0.9567478,6.00184 4.31352736,11.15229 7.0838053,14.5103 2.770278,3.35802 8.7587441,8.14137 10.2696571,9.52403 1.592747,1.45755 5.148294,4.44091 5.148294,7.08761 v 105.99084 c 0,0 -0.09831,3.2103 3.830455,3.2103 3.928761,0 3.830455,-3.2103 3.830455,-3.2103 V 131.29303 c 0,-5.04776 -4.998199,-8.84698 -6.613431,-10.26146 -1.487324,-1.30242 -6.138537,-5.16577 -9.018339,-8.30599 C 7.7046691,109.52743 4.8605784,104.86632 4.3279012,102.60572 2.6635725,95.542587 2.1350296,85.392116 12.766663,78.371529 c 4.608945,-3.04351 12.7774,-2.670005 16.798457,-0.132291 3.897428,2.45969 6.881925,5.35647 8.075993,9.471256 2.105433,7.255365 0.814339,15.587166 -8.271329,18.219596 -5.028596,1.45695 -11.032036,-1.70835 -12.870533,-6.387243 -0.602756,-1.533983 -1.181461,-6.780766 2.992066,-8.962244 2.760251,-1.442766 5.932989,-0.09419 6.407877,1.56993 0.503279,1.664849 0.260251,2.45184 0.160417,4.36958 -0.02358,0.452979 -0.06108,1.112237 0.310188,1.445203 0.371271,0.332966 1.290995,0.252648 1.90998,0.07881 3.401632,-0.955306 3.012796,-6.191203 2.440347,-8.13377 -0.719416,-2.441289 -3.690681,-4.50594 -5.483903,-4.997111 -2.118573,-0.580286 -5.901196,-0.546067 -7.696171,0.14211 -2.314602,0.887396 -5.228093,3.282763 -6.541203,6.307109 -1.076414,2.669312 -1.778494,6.432014 -0.269751,11.132146 0.720735,2.24529 3.981365,6.7962 7.175272,8.57524 3.193909,1.77903 9.073137,3.69249 14.825452,1.5658 C 42.809798,108.90898 48.6701,97.971755 44.39884,84.812997 42.628034,79.357552 37.375122,73.021379 30.436902,70.31724 27.38634,69.128297 24.119034,68.47149 20.859192,68.461021 Z"
           sodipodi:nodetypes="scssssczcsssssssssscszsssscssssss"
           inkscape:label="staff" /></g><text
         xml:space="preserve"
         style="font-style:normal;font-variant:normal;font-weight:normal;font-stretch:normal;font-size:52.9167px;font-family:'Noto Sans Old Hungarian';-inkscape-font-specification:'Noto Sans Old Hungarian';text-align:start;writing-mode:lr-tb;direction:ltr;text-anchor:start;opacity:1;fill:#00c3ff;fill-opacity:1;stroke-width:0.264583"
         x="91.612503"
         y="174.56108"
         id="text2"
         inkscape:label="title"><tspan
           sodipodi:role="line"
           id="tspan2"
           style="font-style:normal;font-variant:normal;font-weight:bold;font-stretch:normal;font-size:52.9167px;font-family:'Liberation Sans';-inkscape-font-specification:'Liberation Sans';fill:#00c3ff;fill-opacity:1;stroke-width:0.264583"
           x="91.612503"
           y="174.56108">GENDALF</tspan></text></g></g></svg>
